# xmcd
#
# Track frame offsets: 
#        150
#        23185
#        44630
#        59791
#        85682
#        105686
#        129246
#        151138
#        168081
#        191910
#        213950
#        237115
#        261031
#        280957
#
# Disc length: 4016 seconds
#
# Revision: 1
# Processed by: cddbd v1.5.2PL0 Copyright (c) Steve Scherf et al.
# Submitted via: ExactAudioCopyFreeDBPlugin 1.0
#
DISCID=bf0fae0e
DTITLE=群星 - DTS51测试试金石
DYEAR=2010
DGENRE=DTS
TTITLE0=跟往事干杯
TTITLE1=甘心情愿
TTITLE2=烟雨蒙蒙
TTITLE3=新小城故事
TTITLE4=我和草原有个约定（笛子）
TTITLE5=香格里拉
TTITLE6=一帘幽梦
TTITLE7=旧梦不须记
TTITLE8=她的背影
TTITLE9=遇上你是我的缘（古筝）
TTITLE10=绽放
TTITLE11=寂寞公路
TTITLE12=在心里从此永远有个你
TTITLE13=不是因为寂寞才想你
EXTD=
EXTT0=
EXTT1=
EXTT2=
EXTT3=
EXTT4=
EXTT5=
EXTT6=
EXTT7=
EXTT8=
EXTT9=
EXTT10=
EXTT11=
EXTT12=
EXTT13=
PLAYORDER=
